<?xml version="1.0" encoding="utf-8"?>
<!-- Generator: Adobe Illustrator 27.0.0, SVG Export Plug-In . SVG Version: 6.00 Build 0)  -->
<svg version="1.1" id="Layer_1" xmlns="http://www.w3.org/2000/svg" xmlns:xlink="http://www.w3.org/1999/xlink" x="0px" y="0px"
	 viewBox="0 0 34.02 34.02" style="enable-background:new 0 0 34.02 34.02;" xml:space="preserve">
<style type="text/css">
	.st0{fill:#FFFFFF;}
</style>
<rect class="st0" width="34.02" height="34.02"/>
<g>
	<g>
		<g>
			<path d="M12.88,27.45V20.9h1.41v6.6c0,2.69,1.14,3.53,2.58,3.53c1.49,0,2.66-0.84,2.66-3.53v-6.6h1.35v6.55
				c0,3.59-1.73,4.8-4.01,4.8C14.61,32.25,12.88,31.04,12.88,27.45z"/>
		</g>
	</g>
	<g>
		<g>
			<rect x="11.46" y="17.68" width="10.46" height="1.25"/>
		</g>
	</g>
	<g>
		<g>
			<path d="M16.89,8.73c-1.97,0-3.58-1.61-3.58-3.58s1.6-3.58,3.58-3.58s3.58,1.6,3.58,3.58h-1.25c0-1.29-1.05-2.33-2.33-2.33
				c-1.29,0-2.33,1.05-2.33,2.33c0,1.29,1.05,2.33,2.33,2.33V8.73z"/>
		</g>
		<g>
			<path d="M16.5,15.81c-1.91,0-3.89-1.29-3.98-3.78v-0.17c0-2.41,1.96-4.37,4.37-4.37v1.25c-1.72,0-3.12,1.4-3.12,3.12
				c0.07,1.91,1.42,2.71,2.74,2.71c0.01,0,0.02,0,0.03,0c1.32-0.01,2.66-0.83,2.69-2.62V8.11h1.25v3.75
				c-0.04,2.61-2.01,3.93-3.92,3.95C16.53,15.81,16.52,15.81,16.5,15.81z"/>
		</g>
		<g>
			<rect x="16.89" y="7.49" width="5.04" height="1.25"/>
		</g>
	</g>
</g>
</svg>
