<?xml version="1.0" encoding="utf-8"?>
<!-- Generator: Adobe Illustrator 26.5.0, SVG Export Plug-In . SVG Version: 6.00 Build 0)  -->
<svg version="1.1" id="Layer_1" xmlns="http://www.w3.org/2000/svg" xmlns:xlink="http://www.w3.org/1999/xlink" x="0px" y="0px"
	 viewBox="0 0 34.02 34.02" style="enable-background:new 0 0 34.02 34.02;" xml:space="preserve">
<style type="text/css">
	.st0{fill:#FFFFFF;}
</style>
<g>
	<g>
		<g>
			<path d="M107.74,26.89v-5.26h1.13v5.3c0,2.16,0.92,2.83,2.08,2.83c1.2,0,2.14-0.67,2.14-2.83v-5.3h1.09v5.26
				c0,2.88-1.39,3.86-3.22,3.86C109.13,30.75,107.74,29.77,107.74,26.89z"/>
		</g>
	</g>
	<g>
		<g>
			<rect x="106.59" y="19.04" width="8.4" height="1"/>
		</g>
	</g>
	<g>
		<g>
			<path d="M110.95,11.85c-1.58,0-2.87-1.29-2.87-2.87s1.29-2.87,2.87-2.87s2.88,1.29,2.88,2.87h-1c0-1.03-0.84-1.87-1.88-1.87
				c-1.03,0-1.87,0.84-1.87,1.87c0,1.03,0.84,1.87,1.87,1.87V11.85z"/>
		</g>
		<g>
			<path d="M110.64,17.54c-1.54,0-3.12-1.04-3.2-3.04l0-0.14c0-1.94,1.57-3.51,3.51-3.51v1c-1.38,0-2.51,1.13-2.51,2.51
				c0.06,1.53,1.14,2.17,2.2,2.17c0.01,0,0.02,0,0.03,0c1.06-0.01,2.13-0.66,2.16-2.1l0-3.08h1v3.01c-0.04,2.09-1.61,3.16-3.15,3.17
				C110.67,17.54,110.66,17.54,110.64,17.54z"/>
		</g>
		<g>
			<rect x="110.95" y="10.85" width="4.04" height="1"/>
		</g>
	</g>
	<g>
	</g>
	<g>
	</g>
	<g>
	</g>
	<g>
	</g>
	<g>
	</g>
</g>
<rect class="st0" width="34.02" height="34.02"/>
<g>
	<g>
		<g>
			<path d="M12.88,27.45V20.9h1.41v6.6c0,2.69,1.14,3.53,2.58,3.53c1.49,0,2.66-0.84,2.66-3.53v-6.6h1.35v6.55
				c0,3.59-1.73,4.8-4.01,4.8C14.61,32.25,12.88,31.04,12.88,27.45z"/>
		</g>
	</g>
	<g>
		<g>
			<rect x="11.46" y="17.68" width="10.46" height="1.25"/>
		</g>
	</g>
	<g>
		<g>
			<path d="M16.89,8.73c-1.97,0-3.58-1.61-3.58-3.58s1.6-3.58,3.58-3.58s3.58,1.6,3.58,3.58h-1.25c0-1.29-1.05-2.33-2.33-2.33
				c-1.29,0-2.33,1.05-2.33,2.33c0,1.29,1.05,2.33,2.33,2.33V8.73z"/>
		</g>
		<g>
			<path d="M16.5,15.81c-1.91,0-3.89-1.29-3.98-3.78l0-0.17c0-2.41,1.96-4.37,4.37-4.37v1.25c-1.72,0-3.12,1.4-3.12,3.12
				c0.07,1.91,1.42,2.71,2.74,2.71c0.01,0,0.02,0,0.03,0c1.32-0.01,2.66-0.83,2.69-2.62l0-3.84h1.25v3.75
				c-0.04,2.61-2.01,3.93-3.92,3.95C16.53,15.81,16.52,15.81,16.5,15.81z"/>
		</g>
		<g>
			<rect x="16.89" y="7.49" width="5.04" height="1.25"/>
		</g>
	</g>
	<g>
	</g>
	<g>
	</g>
	<g>
	</g>
	<g>
	</g>
	<g>
	</g>
</g>
</svg>
