<?xml version="1.0" encoding="utf-8"?>
<!-- Generator: Adobe Illustrator 26.5.0, SVG Export Plug-In . SVG Version: 6.00 Build 0)  -->
<svg version="1.1" id="Layer_1" xmlns="http://www.w3.org/2000/svg" xmlns:xlink="http://www.w3.org/1999/xlink" x="0px" y="0px"
	 viewBox="0 0 24 24" style="enable-background:new 0 0 24 24;" xml:space="preserve">
<style type="text/css">
	.st0{fill:none;stroke:#333333;stroke-width:1.5;stroke-miterlimit:10;}
</style>
<g>
	<path class="st0" d="M20.1,15.06"/>
	<path class="st0" d="M20.1,6"/>
	<polyline class="st0" points="21.18,14.57 21.18,23.02 2.49,23.02 2.49,14.57 	"/>
	<path class="st0" d="M10.33,14.26"/>
	<polyline class="st0" points="10.33,14.26 1.02,14.26 1.02,9.89 22.98,9.89 22.98,14.26 14.14,14.26 	"/>
	<polygon class="st0" points="9.18,9.89 12,20.62 13.35,18.79 15.5,19.36 12.97,9.89 	"/>
	<path class="st0" d="M12.34,9.19c0,0-9.58-2.08-7.12-5.56c0.21-0.29,0.49-0.52,0.82-0.65C7.16,2.54,9.9,2.36,12.34,9.19z"/>
	<path class="st0" d="M12.8,9.09c0,0,0.11-9.83,4.25-7.84c0.09,0.05,0.19,0.1,0.27,0.17C17.98,1.95,20.33,4.49,12.8,9.09z"/>
</g>
</svg>
