<?xml version="1.0" encoding="utf-8"?>
<!-- Generator: Adobe Illustrator 26.5.0, SVG Export Plug-In . SVG Version: 6.00 Build 0)  -->
<svg version="1.1" id="Layer_1" xmlns="http://www.w3.org/2000/svg" xmlns:xlink="http://www.w3.org/1999/xlink" x="0px" y="0px"
	 viewBox="0 0 24 24" style="enable-background:new 0 0 24 24;" xml:space="preserve">
<style type="text/css">
	.st0{fill:#323333;}
</style>
<g>
	<path class="st0" d="M11.42,20.84c-1.7-0.17-3.43-1.01-4.58-2.06l1.03-1.49c1.13,0.96,2.5,1.75,4.13,1.75
		c1.99,0,3.02-1.08,3.02-2.76c0-4.37-7.51-3.41-7.51-8.64c0-2.4,1.58-4.1,3.91-4.44V0.49h1.58v2.69c1.73,0.17,2.83,0.98,3.79,1.99
		l-1.18,1.3c-0.98-0.96-1.8-1.51-3.26-1.51c-1.66,0-2.71,1.03-2.71,2.59c0,3.91,7.51,2.83,7.51,8.59c0,2.54-1.61,4.3-4.15,4.66v2.71
		h-1.58V20.84z"/>
</g>
</svg>
